<?xml version="1.0" encoding="iso-8859-1"?>
<!-- Generator: Adobe Illustrator 19.0.0, SVG Export Plug-In . SVG Version: 6.00 Build 0)  -->
<svg version="1.1" id="Layer_1" xmlns="http://www.w3.org/2000/svg" xmlns:xlink="http://www.w3.org/1999/xlink" x="0px" y="0px"
	 viewBox="0 0 512.002 512.002" style="enable-background:new 0 0 512.002 512.002;" xml:space="preserve">
<g>
	<path style="fill:#88E2E2;" d="M179.005,269.647c-19.448-6.779-39.615-6.768-57.926-1.226
		c10.899,15.722,26.689,28.267,46.137,35.046c19.448,6.779,39.615,6.768,57.926,1.226
		C214.242,288.969,198.452,276.426,179.005,269.647z"/>
	<path style="fill:#88E2E2;" d="M253.799,227.755c6.746-20.671,6.311-41.96,0.076-61.171c-16.367,11.836-29.277,28.767-36.024,49.44
		c-6.746,20.671-6.311,41.96-0.076,61.171C234.143,265.359,247.053,248.427,253.799,227.755z"/>
	<path style="fill:#88E2E2;" d="M342.749,294.926c20.393-7.548,36.808-21.108,47.996-37.925c-19.442-5.48-40.73-5.085-61.121,2.463
		c-20.393,7.548-36.808,21.108-47.996,37.925C301.068,302.869,322.356,302.474,342.749,294.926z"/>
</g>
<g>
	<path style="fill:#67D1D3;" d="M167.216,288.374c-13.919-4.851-25.95-12.668-35.67-22.477c-3.543,0.641-7.038,1.485-10.466,2.523
		c10.899,15.722,26.689,28.267,46.137,35.046s39.615,6.768,57.926,1.226c-3.098-4.47-6.606-8.671-10.466-12.569
		C199.302,294.908,183.022,293.883,167.216,288.374z"/>
	<path style="fill:#67D1D3;" d="M253.799,212.663c-4.146,12.704-10.619,23.995-18.793,33.558c-7.122,8.334-20.881,4.09-21.745-6.839
		l-0.018-0.235c-1.011,13.057,0.611,25.962,4.533,38.046c16.367-11.836,29.277-28.767,36.024-49.44
		c4.149-12.715,5.572-25.662,4.609-38.216C257.812,197.241,256.302,204.995,253.799,212.663z"/>
	<path style="fill:#67D1D3;" d="M342.749,279.834c-16.893,6.253-34.398,7.583-50.962,4.745c-3.746,4.001-7.148,8.283-10.16,12.81
		c19.44,5.48,40.729,5.085,61.121-2.463s36.808-21.108,47.996-37.925c-3.336-0.94-6.729-1.694-10.16-2.282
		C370.418,265.581,357.652,274.319,342.749,279.834z"/>
</g>
<g>
	<path style="fill:#F09EA0;" d="M398.777,99.654c22.265-16.389,42.653-31.646,45.968-34.961c7.759-7.759,7.759-20.338,0-28.098
		c-7.759-7.759-20.338-7.759-28.098,0c-3.315,3.315-18.572,23.703-34.961,45.968L398.777,99.654z"/>
	<path style="fill:#F09EA0;" d="M343.517,120.73c-22.265,16.389-42.653,31.646-45.968,34.961c-7.759,7.759-7.759,20.338,0,28.098
		c7.759,7.759,20.338,7.759,28.098,0c3.315-3.315,18.572-23.703,34.961-45.968L343.517,120.73z"/>
	<path style="fill:#F09EA0;" d="M381.685,137.822c16.389,22.265,31.646,42.653,34.961,45.968c7.759,7.759,20.338,7.759,28.098,0
		c7.759-7.759,7.759-20.338,0-28.098c-3.315-3.315-23.703-18.572-45.968-34.961L381.685,137.822z"/>
	<path style="fill:#F09EA0;" d="M360.609,82.562c-16.389-22.265-31.646-42.653-34.961-45.968c-7.759-7.759-20.338-7.759-28.098,0
		c-7.759,7.759-7.759,20.338,0,28.098c3.315,3.315,23.703,18.572,45.968,34.961L360.609,82.562z"/>
</g>
<g>
	<path style="fill:#F9DE8F;" d="M383.233,83.203c4.155-27.332,7.783-52.537,7.783-57.225c0-10.973-8.896-19.868-19.868-19.868
		s-19.868,8.896-19.868,19.868c0,4.688,3.627,29.893,7.783,57.225H383.233z"/>
	<path style="fill:#F9DE8F;" d="M359.061,137.182c-4.155,27.332-7.783,52.537-7.783,57.225c0,10.973,8.896,19.868,19.868,19.868
		s19.868-8.896,19.868-19.868c0-4.688-3.627-29.893-7.783-57.225H359.061z"/>
	<path style="fill:#F9DE8F;" d="M398.136,122.278c27.332,4.155,52.537,7.783,57.225,7.783c10.973,0,19.868-8.896,19.868-19.868
		s-8.896-19.868-19.868-19.868c-4.688,0-29.893,3.627-57.225,7.783V122.278z"/>
	<path style="fill:#F9DE8F;" d="M344.157,98.106c-27.332-4.155-52.537-7.783-57.225-7.783c-10.973,0-19.868,8.896-19.868,19.868
		c0,10.973,8.896,19.868,19.868,19.868c4.688,0,29.893-3.627,57.225-7.783V98.106z"/>
</g>
<g>
	<path style="fill:#EF8990;" d="M444.745,44.824c-2.816,2.817-17.956,14.253-36.101,27.68c-5.662,4.19-13.54,3.608-18.521-1.372l0,0
		c-2.74,3.7-5.571,7.535-8.439,11.43l17.092,17.092c22.265-16.389,42.653-31.646,45.968-34.961
		c6.504-6.503,7.533-16.384,3.136-23.983C447.03,42.177,446,43.568,444.745,44.824z"/>
	<path style="fill:#EF8990;" d="M325.646,163.921c-7.759,7.759-20.338,7.759-28.098,0c-1.256-1.256-2.287-2.647-3.136-4.114
		c-4.398,7.6-3.367,17.48,3.136,23.983c7.759,7.759,20.338,7.759,28.098,0c3.315-3.315,18.572-23.703,34.961-45.968l-8.439-8.439
		C339.248,146.827,328.381,161.186,325.646,163.921z"/>
	<path style="fill:#EF8990;" d="M444.745,163.921c-7.759,7.759-20.338,7.759-28.098,0c-2.735-2.735-13.602-17.094-26.523-34.538
		l-8.439,8.439c16.389,22.265,31.646,42.653,34.961,45.968c7.759,7.759,20.338,7.759,28.098,0
		c6.504-6.503,7.533-16.383,3.136-23.983C447.03,161.274,446,162.665,444.745,163.921z"/>
	<path style="fill:#EF8990;" d="M352.17,71.132c-4.981,4.981-12.859,5.562-18.521,1.372c-18.144-13.427-33.283-24.864-36.101-27.68
		c-1.256-1.256-2.287-2.647-3.136-4.114c-4.398,7.6-3.367,17.48,3.136,23.983c3.315,3.315,23.703,18.572,45.968,34.961
		l17.092-17.092C357.741,78.667,354.91,74.831,352.17,71.132L352.17,71.132z"/>
</g>
<g>
	<path style="fill:#F7CF6D;" d="M371.146,63.335L371.146,63.335c-6.956,0-12.864-5.096-13.891-11.974
		c-1.891-12.657-3.554-24.185-4.642-32.541c-0.858,2.222-1.335,4.634-1.335,7.158c0,4.688,3.627,29.893,7.783,57.225h24.172
		c4.155-27.332,7.783-52.537,7.783-57.225c0-2.524-0.476-4.937-1.335-7.158c-1.089,8.355-2.751,19.884-4.642,32.541
		C384.01,58.239,378.102,63.335,371.146,63.335z"/>
	<path style="fill:#F7CF6D;" d="M371.146,194.407c-8.448,0-15.66-5.275-18.534-12.71c-0.837,6.424-1.335,10.975-1.335,12.71
		c0,10.973,8.896,19.868,19.868,19.868s19.868-8.896,19.868-19.868c0-1.736-0.498-6.287-1.335-12.71
		C386.807,189.131,379.595,194.407,371.146,194.407z"/>
	<path style="fill:#F7CF6D;" d="M455.362,110.192c-4.688,0-29.893-3.627-57.225-7.783v-4.304l0,0v24.172
		c27.332,4.155,52.537,7.783,57.225,7.783c10.973,0,19.868-8.896,19.868-19.868c0-3.62-0.973-7.011-2.664-9.935
		C469.129,106.195,462.714,110.192,455.362,110.192z"/>
	<path style="fill:#F7CF6D;" d="M269.728,100.258c-1.691,2.923-2.664,6.315-2.664,9.935c0,10.973,8.896,19.868,19.868,19.868
		c4.688,0,29.893-3.627,57.225-7.783v-19.868c-27.332,4.155-52.537,7.783-57.225,7.783
		C279.579,110.192,273.164,106.195,269.728,100.258z"/>
</g>
<circle style="fill:#88E2E2;" cx="371.146" cy="110.197" r="28.312"/>
<path style="fill:#B9BDE6;" d="M166.141,193.239L166.141,193.239c-26.078,16.844-60.872,9.357-77.715-16.721L36.772,96.545
	l45.29,21.662l1.928-52.158l47.575,20.187l-0.357-50.683l51.653,79.972C199.704,141.601,192.217,176.395,166.141,193.239z"/>
<path style="fill:#ABB0E0;" d="M166.139,152.944L166.139,152.944c-26.078,16.842-60.872,9.357-77.714-16.721l-13.994-21.667
	L36.772,96.545l51.653,79.972c16.844,26.078,51.637,33.564,77.714,16.721l0,0c22.758-14.698,31.351-43.066,21.978-67.384
	C184,136.615,176.56,146.215,166.139,152.944z"/>
<path d="M454.077,139.678c15.66,0,28.43-12.713,28.484-28.387c0.027-7.609-2.911-14.773-8.272-20.171
	c-5.362-5.4-12.505-8.387-20.113-8.413c-1.154,0-3.566-0.006-18.611,1.988c12.111-9.139,13.824-10.835,14.646-11.651
	c5.4-5.362,8.388-12.505,8.413-20.115c0.027-7.609-2.911-14.773-8.272-20.17c-5.361-5.4-12.505-8.388-20.113-8.415
	c-0.035,0-0.069,0-0.102,0c-7.569,0-14.694,2.937-20.068,8.272c-0.821,0.816-2.529,2.516-11.753,14.563
	c2.1-15.026,2.112-17.437,2.117-18.593C400.486,12.879,387.752,0.055,372.046,0c-0.035,0-0.068,0-0.101,0
	c-15.66,0-28.43,12.713-28.484,28.385c-0.004,1.157-0.008,3.567,1.987,18.608c-9.142-12.112-10.836-13.824-11.65-14.644
	c-5.361-5.4-12.505-8.388-20.113-8.415c-7.648-0.016-14.773,2.911-20.172,8.272c-5.4,5.361-8.387,12.505-8.413,20.114
	s2.911,14.773,8.272,20.172c0.815,0.821,2.516,2.528,14.563,11.753c-15.027-2.101-17.437-2.112-18.594-2.117
	c-0.035,0-0.069,0-0.102,0c-7.57,0-14.694,2.937-20.068,8.272c-5.4,5.361-8.388,12.505-8.413,20.114
	c-0.055,15.707,12.678,28.53,28.385,28.585c0.055,0,0.113,0,0.176,0c1.239,0,4.104-0.086,18.431-1.986
	c-12.111,9.14-13.823,10.835-14.644,11.65c-5.4,5.361-8.387,12.505-8.413,20.114c-0.027,7.609,2.911,14.773,8.272,20.172
	c5.362,5.4,12.505,8.386,20.114,8.413c0.034,0,0.068,0,0.101,0c0.029,0,0.057-0.002,0.086-0.002
	c-19.001,38.48-34.297,80.759-39.429,97.974c-9.814,32.917-11.595,63.634-14.828,119.396c-1.705,29.397-2.521,59.056-2.427,88.155
	c0.017,4.984,4.061,9.013,9.041,9.013c0.01,0,0.02,0,0.03,0c4.993-0.017,9.028-4.078,9.013-9.07
	c-0.094-28.731,0.712-58.02,2.395-87.049c3.06-52.779,4.885-80.013,11.702-106.606c6.846,1.347,13.753,2.034,20.653,2.034
	c12.63,0,25.232-2.253,37.352-6.74c21.51-7.961,39.579-22.241,52.255-41.293c1.601-2.407,1.955-5.436,0.951-8.147
	s-3.243-4.78-6.026-5.564c-22.026-6.21-45.036-5.283-66.546,2.68c-8.392,3.105-16.249,7.185-23.478,12.122
	c10.283-26.669,25.034-60.711,40.702-87.009c-1.725,12.601-1.735,14.781-1.74,15.865c-0.055,15.707,12.68,28.53,28.387,28.585
	c0.034,0,0.069,0,0.102,0c7.571,0,14.693-2.935,20.068-8.272c5.4-5.36,8.388-12.504,8.413-20.112
	c0.004-1.159,0.01-3.57-1.986-18.609c9.138,12.108,10.834,13.823,11.65,14.645c5.56,5.598,12.886,8.4,20.214,8.4
	c7.261,0,14.524-2.751,20.071-8.26c5.4-5.361,8.388-12.504,8.413-20.114c0.027-7.609-2.911-14.773-8.272-20.17
	c-0.816-0.821-2.517-2.53-14.563-11.754c15.027,2.101,17.437,2.112,18.594,2.117C454.009,139.678,454.042,139.678,454.077,139.678z
	 M454.111,100.789c2.779,0.01,5.387,1.101,7.345,3.073c1.959,1.972,3.032,4.588,3.021,7.366c-0.02,5.724-4.682,10.368-10.401,10.368
	c-0.012,0-0.025,0-0.037,0c-1.482-0.007-9.062-0.682-46.942-6.516l0.029-8.104c37.796-5.55,45.453-6.187,46.971-6.187
	C454.102,100.789,454.106,100.789,454.111,100.789z M371.584,128.276c-4.635-0.019-8.987-1.841-12.254-5.132
	c-3.269-3.291-5.062-7.66-5.045-12.3c0.017-4.641,1.838-8.997,5.131-12.266c3.278-3.255,7.623-5.046,12.24-5.046
	c0.022,0,0.042,0,0.063,0c4.638,0.017,8.991,1.837,12.259,5.125l0.012,0.012c6.744,6.797,6.704,17.812-0.088,24.56l-0.006,0.006
	c-3.275,3.251-7.615,5.04-12.228,5.043L371.584,128.276z M422.809,45.447c1.963-1.948,4.564-3.021,7.33-3.021
	c0.012,0,0.025,0,0.037,0c2.779,0.01,5.387,1.101,7.345,3.074c1.958,1.971,3.031,4.587,3.021,7.366s-1.101,5.387-3.073,7.345
	c-1.054,1.044-6.893,5.928-37.799,28.584l-2.855-2.874l0,0l0,0l-2.856-2.875C416.833,52.298,421.757,46.494,422.809,45.447z
	 M371.982,18.083c5.736,0.02,10.387,4.703,10.366,10.439c-0.006,1.483-0.682,9.066-6.516,46.941l-8.104-0.028
	c-5.567-37.919-6.19-45.504-6.187-46.987C361.562,22.713,366.22,18.055,371.982,18.083z M303.179,52.385
	c0.01-2.78,1.101-5.387,3.073-7.346c1.963-1.948,4.564-3.021,7.33-3.021c0.012,0,0.025,0,0.037,0
	c2.779,0.01,5.387,1.101,7.346,3.074c1.044,1.054,5.926,6.891,28.583,37.798l-5.749,5.709
	c-30.749-22.876-36.553-27.798-37.598-28.848C304.242,57.781,303.169,55.164,303.179,52.385z M289.216,121.018
	c-0.005,0-0.01,0-0.014,0c-5.736-0.02-10.387-4.703-10.366-10.439c0.01-2.78,1.101-5.389,3.073-7.346
	c1.963-1.949,4.564-3.021,7.328-3.021c0.012,0,0.025,0,0.037,0c1.482,0.007,9.063,0.682,46.942,6.516l-0.028,8.104
	C298.387,120.381,290.732,121.018,289.216,121.018z M320.503,176.36c-1.971,1.957-4.556,2.989-7.366,3.021
	c-2.779-0.01-5.387-1.101-7.345-3.072c-1.958-1.972-3.031-4.589-3.021-7.367c0.01-2.78,1.101-5.387,3.074-7.346
	c1.054-1.044,6.891-5.926,37.799-28.584l5.709,5.75c-1.417,1.904-2.763,3.711-4.046,5.428c-1.849,2.325-3.696,4.798-5.537,7.395
	C325.016,171.227,321.388,175.48,320.503,176.36z M333.673,269.204c13.489-4.992,27.684-6.661,41.702-4.97
	c-9.538,10.41-21.398,18.384-34.888,23.379c-13.487,4.993-27.684,6.662-41.702,4.969
	C308.323,282.17,320.184,274.196,333.673,269.204z M378.698,200.703c-1.971,1.958-4.562,2.979-7.366,3.021
	c-5.737-0.02-10.387-4.703-10.368-10.437c0.006-1.483,0.682-9.066,6.517-46.942l4.157,0.014c0.007,0,0.014,0,0.023,0
	c0.001,0,0.002,0,0.005,0l3.919,0.014c5.568,37.914,6.19,45.5,6.187,46.985C381.761,196.137,380.669,198.745,378.698,200.703z
	 M440.134,169.423c-0.01,2.779-1.101,5.387-3.073,7.345c-4.071,4.042-10.67,4.018-14.711-0.051
	c-1.044-1.054-5.928-6.893-28.585-37.8l2.856-2.837c0.006-0.006,0.012-0.012,0.019-0.018v-0.001l2.875-2.855
	c30.747,22.874,36.553,27.798,37.599,28.851C439.07,164.027,440.143,166.643,440.134,169.423z"/>
<path d="M233.341,295.436c-1.332-4.47-2.782-8.914-4.345-13.33c16.131-13.055,28.018-30.29,34.517-50.199
	c7.116-21.803,7.144-44.834,0.081-66.6c-0.892-2.75-3.046-4.906-5.795-5.803c-2.75-0.897-5.761-0.427-8.104,1.269
	c-18.543,13.408-32.107,32.021-39.223,53.824c-1.971,6.04-3.378,12.175-4.262,18.348c-7.466-12.908-15.985-25.485-25.531-37.682
	c23.305-20.997,28.642-56.476,11.087-83.657l-51.511-79.754c-2.182-3.377-6.33-4.91-10.183-3.758
	c-3.852,1.151-6.482,4.706-6.454,8.727l0.259,36.783L89.104,58.848c-2.738-1.161-5.872-0.904-8.382,0.693
	c-2.51,1.595-4.075,4.324-4.184,7.296l-1.413,38.25L42.384,89.43c-3.648-1.744-8.014-0.856-10.688,2.183
	c-2.673,3.038-3.003,7.48-0.808,10.879l25.636,39.691c2.71,4.194,8.307,5.398,12.501,2.688c4.194-2.709,5.398-8.306,2.69-12.5
	l-8.29-12.834l16.325,7.807c2.747,1.316,5.973,1.157,8.58-0.42c2.606-1.577,4.245-4.359,4.357-7.403l1.437-38.901l35.363,15.004
	c2.803,1.191,6.017,0.888,8.548-0.802c2.533-1.689,4.045-4.541,4.024-7.585l-0.137-19.479l34.656,53.658
	c14.065,21.777,7.791,50.937-13.985,65.003c-21.777,14.061-50.937,7.79-65.002-13.987c-2.71-4.195-8.307-5.398-12.501-2.688
	c-4.194,2.709-5.398,8.306-2.69,12.5c12.44,19.259,33.404,29.762,54.788,29.761c9.657,0,19.398-2.149,28.479-6.595
	c17.092,21.668,30.728,44.577,40.729,68.397c-7.115-4.728-14.845-8.589-23.092-11.465c-20.608-7.184-42.518-7.649-63.362-1.339
	c-2.767,0.838-4.967,2.948-5.919,5.678c-0.952,2.73-0.54,5.752,1.107,8.126c12.406,17.897,29.857,31.153,50.467,38.337
	c10.994,3.832,22.355,5.752,33.729,5.752c6.978,0,13.959-0.739,20.862-2.186c5.392,24.428,7.154,51.285,9.93,99.171
	c1.683,29.029,2.489,58.317,2.395,87.049c-0.017,4.993,4.018,9.055,9.013,9.07c0.01,0,0.02,0,0.03,0
	c4.979,0,9.025-4.029,9.041-9.013c0.095-29.099-0.722-58.759-2.427-88.155C244.936,359.071,243.154,328.351,233.341,295.436z
	 M227.663,220.207c4.463-13.674,11.97-25.837,22-35.774c2.236,13.939,1.122,28.19-3.341,41.863
	c-4.463,13.674-11.968,25.838-21.998,35.775C222.088,248.13,223.201,233.882,227.663,220.207z M171.546,296.069
	c-12.489-4.353-23.569-11.413-32.62-20.707c12.868-1.66,25.936-0.298,38.424,4.055l0,0c12.489,4.353,23.569,11.413,32.619,20.707
	C197.102,301.776,184.035,300.421,171.546,296.069z"/>
<g>
</g>
<g>
</g>
<g>
</g>
<g>
</g>
<g>
</g>
<g>
</g>
<g>
</g>
<g>
</g>
<g>
</g>
<g>
</g>
<g>
</g>
<g>
</g>
<g>
</g>
<g>
</g>
<g>
</g>
</svg>